<?xml version="1.0" encoding="UTF-8"?>
<svg width="24px" height="24px" viewBox="0 0 24 24" version="1.1" xmlns="http://www.w3.org/2000/svg" xmlns:xlink="http://www.w3.org/1999/xlink">
    <!-- Generator: sketchtool 60.1 (101010) - https://sketch.com -->
    <title>7E4706A1-C0B5-4004-83B1-77C63A6C70D8@2x</title>
    <desc>Created with sketchtool.</desc>
    <g id="Screens" stroke="none" stroke-width="1" fill="none" fill-rule="evenodd">
        <g id="icons" transform="translate(-84.000000, -42.000000)" fill="#FF5B02" fill-rule="nonzero">
            <g id="add-trip--active" transform="translate(84.000000, 42.000000)">
                <path d="M12,0 C5.383125,0 0,5.383125 0,12 C0,18.616875 5.383125,24 12,24 C18.616875,24 24,18.616875 24,12 C24,5.383125 18.616875,0 12,0 Z M12,22.2222222 C6.36328734,22.2222222 1.77777778,17.6367127 1.77777778,12 C1.77777778,6.36328734 6.36328734,1.77777778 12,1.77777778 C17.6367127,1.77777778 22.2222222,6.36328734 22.2222222,12 C22.2222222,17.6367127 17.6367127,22.2222222 12,22.2222222 Z" id="Shape"></path>
                <path d="M11.8888889,6 C11.3979243,6 11,6.38798153 11,6.86667852 L11,16.688877 C11,17.167574 11.3979243,17.5555556 11.8888889,17.5555556 C12.3798534,17.5555556 12.7777778,17.167574 12.7777778,16.688877 L12.7777778,6.86667852 C12.7777778,6.38798153 12.3798534,6 11.8888889,6 Z" id="Path"></path>
                <path d="M16.688877,11 L6.86667852,11 C6.38798153,11 6,11.3979243 6,11.8888889 C6,12.3798534 6.38798153,12.7777778 6.86667852,12.7777778 L16.688877,12.7777778 C17.167574,12.7777778 17.5555556,12.3798534 17.5555556,11.8888889 C17.5555556,11.3979243 17.167574,11 16.688877,11 Z" id="Path"></path>
            </g>
        </g>
    </g>
</svg>