<?xml version="1.0" encoding="UTF-8"?>
<svg width="23px" height="7px" viewBox="0 0 23 7" version="1.1" xmlns="http://www.w3.org/2000/svg" xmlns:xlink="http://www.w3.org/1999/xlink">
    <!-- Generator: sketchtool 60.1 (101010) - https://sketch.com -->
    <title>6F5D421A-1032-45B7-8F1E-B99C1488E491@2x</title>
    <desc>Created with sketchtool.</desc>
    <g id="Screens" stroke="none" stroke-width="1" fill="none" fill-rule="evenodd">
        <g id="icons" transform="translate(-164.000000, -18.000000)">
            <g id="menu" transform="translate(163.000000, 10.000000)">
                <rect id="Rectangle" fill-opacity="0" fill="#D8D8D8" x="0" y="0" width="24" height="24"></rect>
                <path d="M6.97487557,9.02512443 C8.34170814,10.391957 8.34170814,12.608043 6.97487557,13.9748756 C5.608043,15.3417081 3.391957,15.3417081 2.02512443,13.9748756 C0.658291857,12.608043 0.658291857,10.391957 2.02512443,9.02512443 C3.39190269,7.65829186 5.60798869,7.65829186 6.97487557,9.02512443" id="Path" fill="#D0CECF" fill-rule="nonzero" transform="translate(4.500000, 11.500000) rotate(-90.000000) translate(-4.500000, -11.500000) "></path>
                <path d="M14.9748756,9.02512443 C16.3417081,10.391957 16.3417081,12.608043 14.9748756,13.9748756 C13.608043,15.3417081 11.391957,15.3417081 10.0251244,13.9748756 C8.65829186,12.608043 8.65829186,10.391957 10.0251244,9.02512443 C11.3919027,7.65829186 13.6079887,7.65829186 14.9748756,9.02512443" id="Path" fill="#D0CECF" fill-rule="nonzero" transform="translate(12.500000, 11.500000) rotate(-90.000000) translate(-12.500000, -11.500000) "></path>
                <path d="M22.9748756,9.02512443 C24.3417081,10.391957 24.3417081,12.608043 22.9748756,13.9748756 C21.608043,15.3417081 19.391957,15.3417081 18.0251244,13.9748756 C16.6582919,12.608043 16.6582919,10.391957 18.0251244,9.02512443 C19.3919027,7.65829186 21.6079887,7.65829186 22.9748756,9.02512443" id="Path" fill="#D0CECF" fill-rule="nonzero" transform="translate(20.500000, 11.500000) rotate(-90.000000) translate(-20.500000, -11.500000) "></path>
            </g>
        </g>
    </g>
</svg>