<?xml version="1.0" encoding="UTF-8"?>
<svg width="21px" height="20px" viewBox="0 0 21 20" version="1.1" xmlns="http://www.w3.org/2000/svg" xmlns:xlink="http://www.w3.org/1999/xlink">
    <!-- Generator: sketchtool 60.1 (101010) - https://sketch.com -->
    <title>D3C8BFBA-E445-4F58-B072-9DA6C248B3FA@2x</title>
    <desc>Created with sketchtool.</desc>
    <g id="Screens" stroke="none" stroke-width="1" fill="none" fill-rule="evenodd">
        <g id="icons" transform="translate(-48.000000, -44.000000)">
            <g id="discover-active" transform="translate(46.000000, 42.000000)">
                <rect id="Rectangle" fill-opacity="0" fill="#D8D8D8" x="0" y="0" width="24" height="24"></rect>
                <path d="M22.4193998,2.78310789 L13.0430444,21.698499 C12.9508589,21.8855815 12.7605228,22 12.5571723,22 C12.5268053,22 12.4964383,21.9972887 12.465529,21.991866 C12.2291002,21.9517382 12.0474404,21.7603176 12.0187002,21.5228042 L11.0377375,13.4158981 L2.45255107,11.9767189 C2.21720678,11.9376757 2.03554701,11.7495087 2.00463773,11.5136221 C1.97372846,11.2777355 2.09953463,11.0488985 2.31589955,10.9491212 L21.7079442,2.04941933 C21.9156328,1.9534379 22.1634493,2 22.3234184,2.16492241 C22.4833874,2.32977187 22.5218884,2.57704606 22.4193998,2.78310789 Z" id="Shape" fill="#FF5B02" fill-rule="nonzero"></path>
            </g>
        </g>
    </g>
</svg>