<?xml version="1.0" encoding="UTF-8"?>
<svg width="23px" height="20px" viewBox="0 0 23 20" version="1.1" xmlns="http://www.w3.org/2000/svg" xmlns:xlink="http://www.w3.org/1999/xlink">
    <!-- Generator: sketchtool 60.1 (101010) - https://sketch.com -->
    <title>8FE615D8-A9D4-43DA-972A-7A189462B22B@2x</title>
    <desc>Created with sketchtool.</desc>
    <g id="Screens" stroke="none" stroke-width="1" fill="none" fill-rule="evenodd">
        <g id="icons" transform="translate(-8.000000, -44.000000)">
            <g id="profile-active" transform="translate(7.000000, 42.000000)">
                <rect id="Rectangle" fill-opacity="0" fill="#D8D8D8" x="0" y="0" width="24" height="24"></rect>
                <path d="M1,13.1272727 C1,6.99156364 5.99156364,2 12.1272727,2 C18.2629818,2 23.2545455,6.99156364 23.2545455,13.1272727 C23.2545455,16.4336 21.8036364,19.4061091 19.5066182,21.4456727 C19.3783273,21.3570909 19.2491636,21.2776727 19.1169455,21.2113455 L15.4222545,19.3642182 C15.0906182,19.1984 14.8846545,18.8650182 14.8846545,18.4945455 L14.8846545,17.2042182 C14.9701818,17.0986182 15.0605091,16.9790545 15.1538909,16.8477091 C15.6321455,16.1722182 16.0157091,15.4208 16.2954182,14.6122182 C16.8482909,14.3495273 17.2052364,13.7988364 17.2052364,13.1770182 L17.2052364,11.6301091 C17.2052364,11.2517818 17.0664727,10.8848 16.8181818,10.5963636 L16.8181818,8.55985455 C16.8408727,8.33294545 16.9211636,7.05527273 15.9965091,6.00101818 C15.1922909,5.08290909 13.8906182,4.61818182 12.1272727,4.61818182 C10.3639273,4.61818182 9.06225455,5.08290909 8.25803636,6.00058182 C7.33338182,7.05483636 7.41367273,8.33338182 7.43636364,8.55941818 L7.43636364,10.5959273 C7.18850909,10.8843636 7.04930909,11.2513455 7.04930909,11.6296727 L7.04930909,13.1765818 C7.04930909,13.6570182 7.26487273,14.1051636 7.63403636,14.4075636 C7.98749091,15.7921455 8.71490909,16.8402909 8.98370909,17.1954909 L8.98370909,18.4583273 C8.98370909,18.8144 8.78952727,19.1416727 8.47665455,19.3127273 L5.02632727,21.1947636 C4.91636364,21.2545455 4.80727273,21.3243636 4.69818182,21.4024727 C2.42952727,19.3637818 1,16.4096 1,13.1272727 Z" id="Shape" fill="#FF5B02" fill-rule="nonzero"></path>
            </g>
        </g>
    </g>
</svg>