<?xml version="1.0" encoding="UTF-8"?>
<svg width="24px" height="24px" viewBox="0 0 24 24" version="1.1" xmlns="http://www.w3.org/2000/svg" xmlns:xlink="http://www.w3.org/1999/xlink">
    <!-- Generator: sketchtool 60.1 (101010) - https://sketch.com -->
    <title>E0E3A20D-F17D-41D8-AF16-7E402FD8F6D2@2x</title>
    <desc>Created with sketchtool.</desc>
    <g id="Screens" stroke="none" stroke-width="1" fill="none" fill-rule="evenodd">
        <g id="icons" transform="translate(-124.000000, -10.000000)" fill="#D0CECF" fill-rule="nonzero">
            <g id="search" transform="translate(124.000000, 10.000000)">
                <path d="M15.6332903,2.67851613 C12.0619355,-0.89283871 6.24929032,-0.89283871 2.67793548,2.67851613 C-0.892645161,6.25064516 -0.892645161,12.0625161 2.67793548,15.6346452 C5.85832258,18.8142581 10.8116129,19.1549032 14.3806452,16.6720645 C14.4557419,17.0274194 14.6276129,17.3665161 14.904,17.6429032 L20.1050323,22.8439355 C20.8629677,23.6003226 22.0877419,23.6003226 22.8418065,22.8439355 C23.5989677,22.0867742 23.5989677,20.862 22.8418065,20.1071613 L17.6407742,14.9045806 C17.3659355,14.6305161 17.0260645,14.457871 16.6707097,14.3827742 C19.1550968,10.8129677 18.8144516,5.86045161 15.6332903,2.67851613 Z M13.9912258,13.9925806 C11.3249032,16.6589032 6.98554839,16.6589032 4.32,13.9925806 C1.65522581,11.3262581 1.65522581,6.98767742 4.32,4.32135484 C6.98554839,1.65580645 11.3249032,1.65580645 13.9912258,4.32135484 C16.6575484,6.98767742 16.6575484,11.3262581 13.9912258,13.9925806 Z" id="Shape"></path>
            </g>
        </g>
    </g>
</svg>